<svg xmlns="http://www.w3.org/2000/svg" xmlns:xlink="http://www.w3.org/1999/xlink" version="1.1" id="Layer_1" x="0px" y="0px" width="1662.337px" height="334.737px" viewBox="0 0 1662.337 334.737" enable-background="new 0 0 1662.337 334.737" xml:space="preserve"><g class="logo-nca-dots"><path fill="#D20F3B" d="M199.771 48.944c0 5.967-4.847 10.805-10.796 10.805h-37.802c-5.956 0-10.81-4.838-10.81-10.805V10.804c0-5.952 4.854-10.804 10.81-10.804h37.802c5.949 0 10.796 4.852 10.796 10.804V48.944z"/><path fill="#0795A0" d="M199.771 323.95c0 5.957-4.847 10.787-10.796 10.787h-37.802c-5.956 0-10.81-4.83-10.81-10.787v-38.141c0-5.955 4.854-10.793 10.81-10.793h37.802c5.949 0 10.796 4.838 10.796 10.793V323.95z"/><path fill="#23B0E7" d="M107.368 259.225c4.229 4.211 4.229 11.068 0 15.291l-26.721 26.713c-4.221 4.219-11.057 4.219-15.277 0l-26.963-26.973c-4.212-4.193-4.212-11.041 0-15.26l26.719-26.709c4.218-4.232 11.065-4.232 15.275 0L107.368 259.225z"/><path fill="#F28A14" d="M301.565 65.039c4.214 4.225 4.214 11.073 0 15.274l-26.714 26.729c-4.22 4.217-11.065 4.217-15.293 0l-26.973-26.978c-4.206-4.21-4.206-11.031 0-15.259l26.75-26.727c4.21-4.21 11.042-4.21 15.262 0L301.565 65.039z"/><path fill="#C33C8E" d="M107.876 65.039c4.212 4.225 4.212 11.073 0 15.274l-26.72 26.729c-4.22 4.217-11.057 4.217-15.284 0L38.92 80.065c-4.214-4.21-4.214-11.031 0-15.259L65.642 38.08c4.22-4.21 11.061-4.21 15.277 0L107.876 65.039z"/><path fill="#CAD526" d="M302.416 259.577c4.204 4.209 4.204 11.047 0 15.283l-26.722 26.711c-4.226 4.219-11.065 4.219-15.284 0l-26.95-26.973c-4.219-4.201-4.219-11.035 0-15.277l26.713-26.719c4.218-4.209 11.057-4.209 15.275 0L302.416 259.577z"/><path fill="#889AA4" d="M340.131 194.377c0 5.977-4.825 10.805-10.788 10.805h-37.787c-5.984 0-10.804-4.828-10.804-10.805v-38.133c0-5.961 4.819-10.805 10.804-10.805h37.787c5.963 0 10.788 4.844 10.788 10.805V194.377z"/><path fill="#5A3B8F" d="M59.389 194.377c0 5.977-4.835 10.805-10.777 10.805H10.793C4.838 205.182 0 200.354 0 194.377v-38.133c0-5.961 4.838-10.805 10.793-10.805h37.818c5.942 0 10.777 4.844 10.777 10.805V194.377z"/></g><g class="logo-nca-news"><path d="M500.201 243.241v-86.316c0-14.15-5.377-28.019-21.792-28.019 -19.81 0-25.188 17.546-25.188 33.112v81.223h-41.885V96.643h40.753v16.98c10.188-13.018 23.489-20.376 40.47-20.376 11.037 0 22.074 2.83 30.848 9.622 16.697 12.735 19.527 30.565 19.527 50.375v89.996H500.201z"/><path d="M591.505 182.112c2.547 18.111 12.452 31.412 31.696 31.412 13.019 0 21.226-4.527 27.451-15.564l41.885 2.83c-10.471 31.414-38.205 46.695-70.468 46.695 -46.413 0-74.147-32.545-74.147-77.543 0-43.866 29.149-77.543 74.147-77.543 48.96 0 72.166 37.356 72.166 82.637v7.076H591.505zM650.37 150.415c-1.415-14.716-12.17-25.188-27.169-25.188 -17.829 0-26.886 8.49-31.413 25.188H650.37z"/><path d="M894.604 96.643l-42.451 146.598h-38.771l-24.622-99.053 -24.339 99.053h-39.337L682.349 96.643h42.734l22.356 91.693 22.924-91.693h36.791l22.641 91.693 22.357-91.693H894.604z"/><path d="M926.297 191.733c2.547 18.961 12.451 24.338 31.131 24.338 9.055 0 20.941-1.98 20.941-13.584 0-26.318-87.166-5.094-87.166-63.676 0-34.527 31.414-46.413 61.129-46.413 32.264 0 62.545 13.867 64.242 49.809l-39.055 1.98c-0.848-15.565-13.584-21.225-25.752-21.225 -7.926 0-20.377 1.415-20.377 12.452 0 22.357 89.43 4.812 89.43 62.828 0 37.922-34.244 49.242-66.223 49.242 -31.131 0-67.922-13.867-67.922-52.639v-1.697L926.297 191.733z"/></g><g class="logo-nca-comau"><path fill="#C2C2C2" d="M1052.874 244.497h-30.545V213.95h30.545V244.497z"/><path fill="#C2C2C2" d="M1156.337 205.022c-5.535 29.316-24.19 42.436-50.226 42.436 -33.825 0-52.48-23.166-52.48-55.76 0-33.211 20.091-56.583 54.326-56.583 22.345 0 45.92 13.532 47.354 39.977l-29.109 1.23c-1.846-10.455-8.2-16.4-18.86-16.4 -17.221 0-22.346 15.58-22.346 30.34 0 14.555 4.101 31.57 21.73 31.57 11.07 0 19.065-7.176 20.295-18.246L1156.337 205.022z"/><path fill="#C2C2C2" d="M1213.53 247.458c-33.211 0-53.916-22.961-53.916-55.555 0-34.441 22.346-56.788 56.786-56.788 32.595 0 53.095 23.987 53.095 55.762C1269.495 223.678 1246.535 247.458 1213.53 247.458zM1214.965 159.307c-18.245 0-24.396 15.58-24.396 31.365 0 15.375 5.74 32.186 23.985 32.186 18.655 0 23.985-17.426 23.985-33.211C1238.54 174.477 1232.8 159.307 1214.965 159.307z"/><path fill="#C2C2C2" d="M1397.62 244.383v-55.762c0-11.48-1.025-25.42-15.375-25.42 -15.785 0-16.4 13.531-16.4 25.42v55.762h-30.341v-60.066c0-9.02-2.255-21.115-15.58-21.115 -15.375 0-16.81 14.555-16.81 24.6v56.582h-29.931V138.192h29.931v14.145c6.354-11.891 15.99-16.606 29.315-16.606 12.71 0 23.37 5.946 28.29 18.247 6.56-11.48 18.655-18.042 31.775-18.042 7.995 0 17.425 2.461 23.78 7.586 11.274 9.225 11.479 20.5 11.479 33.824v67.037H1397.62z"/><path fill="#C2C2C2" d="M1461.931 244.383h-30.545v-30.547h30.545V244.383z"/><path fill="#C2C2C2" d="M1536.014 234.747c-10.045 6.561-16.195 12.711-33.21 12.711 -19.476 0-37.105-11.686-37.105-34.234 0-23.166 18.04-31.16 37.926-34.031l14.35-2.051c9.021-1.229 16.4-2.049 16.4-8.814 0-8.814-11.275-9.84-16.195-9.84 -11.07 0-18.655 4.1-18.655 13.324h-27.88c1.845-35.26 35.465-36.696 45.306-36.696 28.905 0 48.175 8.407 48.175 39.977v45.92c0 10.865 0.82 17.836 3.485 22.551l0.615 0.82h-31.775L1536.014 234.747zM1535.194 193.542c-2.87 1.025-4.716 1.846-7.381 2.461 -8.404 2.254-31.57 2.459-31.57 16.195 0 8.814 7.995 11.48 14.146 11.48 2.255 0 17.016-0.205 24.806-13.736V193.542z"/><path fill="#C2C2C2" d="M1633.881 244.461v-11.686c-5.896 9.635-19.106 14.35-29.88 14.35 -32.928 0-35.164-26.855-35.164-46.945v-61.91h29.88v60.885c0 11.686 2.235 22.961 16.463 22.961 15.043 0 18.091-12.506 18.091-28.496v-55.35h29.066v106.191H1633.881z"/></g></svg>