<svg xmlns="http://www.w3.org/2000/svg" viewBox="0 0 64 64"><g fill="#A3A397"><path d="M9.5 26.4h.1l.3.2.2.1.2.1.1.1.2.1.2.1.1-.1v-.1l.1-.1v-.3l.1-.2-.1-.1v-.1l.1-.3V25.5l.1-.1V25.1h.2v.3h.1v.1l.1.2v.2l.1.3.1-.1h.1l.1.1.1.2v.4l.1.1v.4l.1.2.1.1.2.1.1.1.2.1v.1l.1.2.1.2.1.1v-.1l.1.1.1.4.3.2.1.3.1-.1v1.5h-.1v.3l-.1.3-.1.1-.1.1-.2.2v.1l-.1.1-.1.2-.1.3V32.8l-.1.1-.1.1h-.2l-.1.1-.2.1-.2.1-.2-.1h-.1V33v.1l-.3.2-.1-.1-.1-.1H11l-.3-.3v-.1l-.1-.2-.1-.2h-.2l.1-.1V32l-.1-.1v.3h-.2V32l.2-.3v-.2h-.1l-.1.1.1.1-.2.1-.1.1v.1l-.1.1-.1-.1-.2-.3-.1-.1-.1-.2H9l-.2-.1-.1-.1H8.4l-.2.1-.1.1-.4.1h-.2l-.3.2-.1.1v.1l-.2.1h-.1l-.1.1-.1-.1-.2.1-.2.1-.1.1-.2.1-.2.1h-.3l-.1-.1-.2-.1V31.7l-.2-.3-.1-.2V31l-.2-.1-.1-.2-.1-.2-.1-.2-.2-.2.1.1V30l.1.1.1-.2-.2-.1-.1-.1v-.8l.1.1.1-.1.1-.2h.1l.1-.2.2-.1.1.1.2-.2h.1l.1-.1.2-.1.1-.1h.2l.1-.1v-.2l.2-.2v-.2l-.1-.1.1-.1.1-.1.1.1.1.2v-.4l.1.1.1-.1.1-.1-.1-.1.1-.1.1-.2.1-.1h.2l.1-.1.1-.1v.1l.1.1h.1v.3h.1v-.2H7.9v-.1l-.1-.1.1-.1V26h.2V25.7h.1l.1-.1H8.6l.1-.1v-.1l-.2-.1h.3l.1.1H9l.2.1h.2v.1l.2-.2.1.1.1.1-.1.2h-.1v.2zM11.7 33.8H12l.1.1h.2l.1-.1h.1v.3l-.1.2v.1h-.1l-.1.1v.1h-.1l-.1-.1-.1-.2-.1-.2-.1-.2z"/></g><path fill="#A3A397" d="M59.5 30c-.4-.3-1.1-.4-2-.4-3.2.2-3.8 2.1-3.9 2.3-.5 1.4.5 2.7 1.1 3.4.7.9 1.5 1.9 1.7 2.1-.3.1-.5.1-.9.2-.3 0-.8 0-1.3-.1 0 0-.5-.1-.8-.2-.6-.2-.8-.4-.8-.4-.4.1-.8.3-1.1.7-.2.3-.5.9-.3 1.2s.5.4 1.2.4c1.6.1 3.8.1 4.4.1.9.1 1.5-.6 1.6-1 .2-.5 0-1.1-.3-1.4-1.4-1.6-3.3-3.3-2.6-4.8.2-.3.6-.5 1.1-.5s1 0 1.2.1c1.3.4 1.7-.3 1.9-.8.3-.1.3-.6-.2-.9zM49.3 35.6s.1.2-.5.6c-.1.1-1.2 1-2.1 1-.1 0-.6-.4.8-3.9.2-.5.1-.9-.1-1.2-.1-.1-.3-.4-1-.3-.6.1-1.1.6-1.1.7v.5c-.2.2-.4.5-.6.8-.6.6-4.1 3.3-4.9 3.3-.5 0 .3-3.1.3-3.1s.3-.7.3-1.2c0-.4-.1-.7-.6-1-.4-.3-1.1-.2-1.1-.2 0 .1-.1.4-.1.4-.6.6-6.3 5.5-7.2 5.2-.6-.2-.5-1 0-2.4.5-1.3 5.2-9 5.7-9.9.6-.9 1.5-2 1.3-2.9-.1-.6-1.3-1-2.5-.7 0 0 0 .8-.2 1.5-.1.3-2.2 4-3.8 7-4 6.1-6.5 6.7-8.3 7.4.8-.6 3.1-4.3 1.5-5.5-.9-.7-3.5-.4-5 .4.2-.3.6-.9.4-1.7-.2-.7-1.6-1-2.4-.7 0 .6-.1.9-.2 1.2 0 0-.9 2.7-1.5 3.9-.3.6-3.1 6.8-4.6 9.9-.7 1.4-1.6 3.3-.6 3.8.8.4 1.9 0 2.1-1 .2-1.3 2.2-6.4 3.1-8.4 1.7-3.8 4.2-5.8 6.8-5.8.1.2.3 1.7-1.2 3.2-1 .9-2 .9-1.9 1.9 0 .6.7.9 1.5.9 3.4-.2 5.8-1.5 7.5-2.9-.2 1.3.1 2.2.7 2.6.3.2.6.3.9.3 2 0 6.2-3.6 7.4-4.5-.2.4-.5 1.9-.3 3.1.1.8.7 1.4 1.5 1.4 2 0 5.2-2.8 5.8-3.3-.2.9-.3 2.1.3 2.8.2.2.5.5 1 .5 1.4 0 2.8-.9 4-1.5.9-.4 1-1.1.4-1.8-.7-.5-1.5-.4-1.5-.4z"/></svg>