<?xml version="1.0" encoding="utf-8"?>
<!-- Generator: Adobe Illustrator 18.1.1, SVG Export Plug-In . SVG Version: 6.00 Build 0)  -->
<svg version="1.1" id="Layer_1" xmlns="http://www.w3.org/2000/svg" xmlns:xlink="http://www.w3.org/1999/xlink" x="0px" y="0px"
	 viewBox="93 398.5 608 51.2" enable-background="new 93 398.5 608 51.2" xml:space="preserve">
<path fill="#F15B46" d="M699.5,417l-0.1,0l0.1-0.9l0-0.5l0-0.4l0-0.6l-0.3,0.3l-0.3-0.8l-0.9-0.9l-0.4-1.1l-0.4-0.2l-0.1,0.2
	l-0.3-0.4l-0.2-0.8l-0.3-0.4L696,410l-0.5-0.3l-0.3-0.4l-0.6-0.1l-0.5-0.5l-0.2-0.6l-0.1-1.2l-0.3-0.2l-0.2-0.8l0-0.7l-0.2-0.5
	l-0.4-0.5l-0.2,0l-0.3,0.2l-0.4-0.8l-0.1-0.8l-0.2-0.5l0-0.4l-0.3-0.1l0-0.8l-0.3-0.2l-0.2,0.2l-0.1,0.3l0,0.6l-0.3,0.4l0,0.4
	l-0.1,0.6l-0.2,0.7l0,0.6l0.1,0.4l-0.2,0.4l0,0.9l-0.2,0.5l-0.1,0.4l-0.4,0.3l-0.7-0.3l-0.5-0.5l-0.5-0.1l-0.6-0.4l-0.4-0.2l-1-0.7
	l-0.5-0.2l0.4-1.3l0-0.4l0.4-0.1l0.4-0.8l-0.3-0.4l-0.2,0.1l-0.3-0.3l-0.4,0.6l-0.3-0.2l-0.6-0.1l-0.7-0.2l-0.4-0.1l-0.4-0.3
	l-0.8-0.1l0.5,0.3l0.2,0.4l-0.2,0.2l-0.5,0.1l-0.6-0.1l-0.4,0.3l-0.2,0.3l-0.2,0.3l0.2,0.5l-0.5,0.2l0,0.2l-0.3,0.4l0.3,0.3l0,0.4
	l-0.3-0.1l-0.5-0.2l-0.3,0.2l-0.1,0.5l-0.1,0.1l0-0.8l-0.4-0.1l-0.3-0.4l-0.3-0.2l-0.4,0.1l-0.2,0.4l-0.5,0.2l-0.3-0.2l-0.4,0.3
	l-0.3,0.8l-0.3,0.2l0.3,0.4l-0.1,0.4l-0.6,0.2l-0.3-0.1l-0.1,0.3l0.3,0.5l-0.1,0.5l-0.4-0.7l-0.2-0.4l-0.3,0.3l-0.3,0.4l0.1,0.5
	l0.2,0.5l-0.6,0.7l-0.2,0.7l-0.4,0.3l-0.4,0.1l-0.5,0.3l-0.5,0.1l-0.3,0.6l-0.5-0.2l-0.5,0.6l-0.5-0.1l-0.5,0.4l-0.3,0.5l-0.3,0
	l-0.3,0.6l-0.2,0.4l-0.4-0.3l0,0.5l-0.1,0.3l0.2,0.6l-0.1,0.6l0.1,0.4l0.4,0.6l0.4,0.2l-0.1,0.7l-0.5-0.3l0.1,0.4l-0.3-0.1l0.4,0.7
	l0.3,0.4l0.4,0.8l0.4,0.5l0.6,0.3l0,0.8l0.2,0.6l0.8,1.1l0,0.6l0.1,0.7l-0.3,0.2l0.2,0.5l0.4,0.2l0.6,0.3l1.4-0.3l0.8-0.5l0.3-0.3
	l0.6-0.3l0.6-0.1l0.3,0.3l0.5-0.3l0.3,0l0.5-0.3l0.1-0.6l0.1-0.2l1-0.7l0.7,0.1l1.3-0.6l0.3-0.3l0.7-0.2l0.7,0.1l0.3-0.1l0.4,0.2
	l0.4,0.3l0.5,0l0.5,0.1l0.4,0.7l0.3,0.1l0.1,0.3l0.5,0.9l0.6,0.3l0.1-0.3l0.2-0.4l0.3-0.3l0.5-0.2l-0.1-0.4l0.1-0.2l0.4-0.2
	l-0.1,0.7l-0.4,1.1l-0.2,0.4l0.7,0l0.1-0.8l0.2,0.3l0,0.6l-0.2,0.5l0.3,0l0.4-0.2l0.4,0.7l0.2,0.6l0.1,0.5l1,0.9l0.8,0l0.5,0.3
	l0.4,0.3l0.7-0.5l0.1-0.3l0.1,0.4l0.2,0l0.6,0.5l0.6-0.3l0.6-0.5l0.4-0.1l0.5,0.1l0.6-0.3l0.2-0.5v-0.2l0.1-0.7l0.3-0.8l0.2-0.7
	l0.2-0.3l0.2-0.5l0.5-0.7l0.3-0.2l0.3-0.5l0.3-0.9l0-0.8l0.3-0.3l0.1-0.4l0.2-0.3L699.5,417L699.5,417z M694.5,429.4l-0.5,0.2
	l-0.5,0.2l-0.5-0.3l-0.4-0.2l-0.5,0l0,0.5l0.4,0.6l0,0.8l0.3,0.6l0.3,0.4l0.5,0l0.1-0.4l0.3-0.2l0.3,0l0-0.5l0.2-0.4l0-1
	L694.5,429.4L694.5,429.4z"/>
<path fill="#004563" d="M95.7,401l-1.3,14.9h1.9c0.9-3.5,0.9-9.7,7.5-9.7h4.7v38.1l-7,0.9v2.3H127v-2.3l-1.9-0.1
	c-4.9-0.8-5.1-0.4-5.1-4.2v-34.7h4.8c6.6,0,6.7,6.2,7.6,9.7h1.8l-1.3-14.9L95.7,401L95.7,401z M161.3,403.5l0.8,0.1
	c4.9,0.6,5.4,0.4,5.4,4.2v13.4h-14.9v-16.8l6.2-0.9V401h-23.7v2.5l1.5,0.1c4.9,0.5,5.7,0.4,5.7,4.2v36.6l-7.2,0.9v2.3h23.7v-2.3
	l-0.8-0.1c-4.9-0.6-5.4-0.4-5.4-4.2v-15.3h14.9v18.8l-6.2,0.9v2.3H185v-2.3l-0.9-0.1c-4.9-0.5-5.2-0.4-5.2-4.2v-36.6l6.2-0.9V401
	h-23.7L161.3,403.5L161.3,403.5z M211.7,442.8c-7.7,0-7.3-0.7-7.3-6.2v-11h8.1c2.4,0,5.3,0,5.2,6.2h1.8l1.3-15.8h-1.9
	c-0.4,2.6-0.9,5.3-5.4,5.3h-9v-15.8h10.9c5.7,0,6.6,3.5,6.7,7h1.8l1-11.4h-38v2.5l0.9,0.1c4.9,0.5,5.2,0.4,5.2,4.2v36.6l-6.2,0.9
	v2.3h37.8l1.2-13.2h-1.8C222.3,440.5,220.4,442.8,211.7,442.8L211.7,442.8z M280.3,441.8L266.6,401h-9.8l-14.9,43.4l-5.8,0.9v2.3
	h16.7v-2.3c-4.4-0.5-6.1-1-5-4.4c0.2-0.7,1.2-3.9,2.4-6.5h15.9l3.5,10.1l-7,0.8v2.3h24.6v-2.3l-2.2-0.2
	C282.9,444.8,281.3,444.8,280.3,441.8L280.3,441.8z M251.8,429.1c3-8.8,6.5-18.8,6.5-18.8l6.2,18.8H251.8z M327.4,401h-17.6v2.5
	l0.9,0.1c4.9,0.5,5.2,0.4,5.2,4.2v21.6c0,7.5-0.4,13.8-10.2,13.8c-8.3,0-10.1-5.3-10.1-13.1v-25.8l6.2-0.9V401h-23.7v2.5l1.4,0.1
	c4.9,0.5,5.7,0.4,5.7,4.2v22.9c0,10.7,3.8,17.6,19,17.6c16.1,0,16.1-11.5,16.1-17.6v-26.4l7-0.9L327.4,401L327.4,401z M327.2,433.4
	L327.2,433.4C327.2,433.4,327.2,433.4,327.2,433.4z M351.2,420.1c-8.7-3.4-16.4-4.4-16.4-9.4c0-4.8,5.1-5.6,9.5-5.6
	c6.8,0,10.4,2,10.3,10.8h1.9c0,0,1.2-14.2,1.2-13.9c-3.5-0.9-8.2-2.1-12.9-2.1c-8,0-18.7,2.5-18.7,14c0,6.6,2.3,10.9,8.1,13.2
	c3.6,1.4,6.7,2.6,8.2,3.1c5.3,1.7,7.9,3.7,7.9,7.1c0,3-1.8,6.4-8.4,6.4c-4.5,0-7.5-1.4-8.8-1.9c-3.6-1.5-4-5.8-4-8.1l-1.9-0.2
	c-0.1,0.8-1,11.2-1,11.5c2.6,1.8,8.6,3.7,15.4,3.7c6.5,0,17.5-3.5,17.5-15.2C359.1,426.5,356,422,351.2,420.1L351.2,420.1z M361,401
	l-1.3,14.9h1.9c0.9-3.5,0.9-9.7,7.5-9.7h4.9v38.1l-7,0.9v2.3h25.5v-2.3l-1.9-0.1c-4.9-0.8-5.1-0.4-5.1-4.2v-34.7h4.7
	c6.6,0,6.7,6.2,7.6,9.7h1.8l-1.3-14.9H361L361,401z M522.2,442.6c-7.7,0-7.7-0.5-7.7-6v-32.2l7-0.9V401h-23.7v2.5l0.9,0.1
	c4.9,0.5,5.2,0.4,5.2,4.2v36.6l-5.3,0.9v2.3h34.5l1.4-15.8h-1.8C531.3,438.8,529.1,442.6,522.2,442.6L522.2,442.6z M443.9,442.4
	c-2.6-13.2-6.3-15.7-12.9-16.9c4.9-0.6,11.5-1.7,11.5-12.2c0-9.3-6.7-12.4-18.7-12.4h-23.5v2.5l0.9,0.1c4.9,0.5,5.2,0.4,5.2,4.2
	v36.6l-6.2,0.9v2.3h23.7v-2.3l-0.9-0.1c-4.9-0.5-5.2-0.4-5.2-4.2v-12.7h3c4.3,0,6.8,0.2,8.1,2.5c1.5,2.8,2.4,5.9,3.2,10
	c0.4,1.7,1.1,5.1,1.4,6.8h14.1v-2.3C445.1,444.8,444.4,445.1,443.9,442.4L443.9,442.4z M424.4,422.9h-6.5v-17.6h6.4
	c2.9,0,8.2,1.1,8.2,8.5C432.6,419.7,429.8,422.9,424.4,422.9L424.4,422.9z M491.7,441.8L478,401h-9.8l-15.3,43.4l-4.2,0.9v2.3h13.2
	v-2.3c-2.6,0-5.1-0.4-4.1-3.4c0.2-0.6,1.5-4,2.9-7.5h16.9l3.4,10.1l-5.9,0.8v2.3h22.9v-2.3l-1.7-0.1
	C495,444.9,492.7,444.8,491.7,441.8L491.7,441.8z M462.4,429.1c3.4-8.8,7.2-19.9,7.2-19.9l6.3,19.9H462.4L462.4,429.1z M534.8,403.5
	l0.9,0.1c4.9,0.5,5.2,0.4,5.2,4.2v36.6l-6.1,0.9v2.3h23.7v-2.3l-0.9-0.1c-4.9-0.5-5.2-0.4-5.2-4.2v-36.6l6.2-0.9V401h-23.7V403.5
	L534.8,403.5z M604.1,441.8L590.4,401h-9.8l-15.1,43.4l-6,0.9v2.3H577v-2.3c-5.3-0.5-6.3-1-5.3-4.4c0.2-0.7,0.9-3.9,2.1-6.5h15.9
	l3.3,10.1l-7.2,0.8v2.3h24.6v-2.3l-2.1-0.2C606.5,444.8,605.1,444.8,604.1,441.8L604.1,441.8z M575.5,429.1c3-8.8,6.5-18.8,6.5-18.8
	l6.2,18.8H575.5L575.5,429.1z M642,401v2.5l1.4,0.1c4.9,0.5,5.7,0.4,5.7,4.2v24L628.4,401h-18v2.5l2,0.1c4.9,0.8,4.9,0.4,4.9,4.2
	v36.6l-5.1,0.9v2.3h16.7v-2.3l-0.9-0.1c-4.9-0.5-5.2-0.4-5.2-4.2v-29.2l23.5,35.8h7.6v-43.2l5.8-0.9V401H642L642,401z"/>
</svg>
