<?xml version="1.0" encoding="UTF-8" standalone="no"?>
<svg width="19px" height="20px" viewBox="0 0 19 20" version="1.1" xmlns="http://www.w3.org/2000/svg" xmlns:xlink="http://www.w3.org/1999/xlink" xmlns:sketch="http://www.bohemiancoding.com/sketch/ns">
    <!-- Generator: Sketch 3.4.3 (16044) - http://www.bohemiancoding.com/sketch -->
    <title>Artboard</title>
    <desc>Created with Sketch.</desc>
    <defs></defs>
    <g id="Page-1" stroke="none" stroke-width="1" fill="none" fill-rule="evenodd" sketch:type="MSPage">
        <g id="Artboard" sketch:type="MSArtboardGroup" fill="#FFFFFF">
            <g id="Imported-Layers-Copy" sketch:type="MSLayerGroup">
                <path d="M0.315,5.702 L0.315,13.818 L4.872,13.818 L11.693,19.493 L11.698,0.022 L4.875,5.702 L0.315,5.702" id="Fill-1" sketch:type="MSShapeGroup"></path>
                <path d="M13.960055,4.17516387 C13.8538991,4.06189123 13.7127228,4 13.5660744,4 C13.4172373,4 13.276061,4.06305899 13.1666219,4.1798349 C12.9444607,4.42039328 12.9455551,4.8139281 13.1699051,5.05682199 C14.2708619,6.24676852 14.8771542,7.82674659 14.8771542,9.50598419 C14.8771542,11.1817185 14.2708619,12.7593611 13.1709995,13.9458043 C12.9422719,14.1922015 12.9433663,14.582233 13.1720939,14.8321335 C13.3811225,15.0586787 13.7630647,15.0516722 13.9567718,14.8368045 C15.2766067,13.4086351 15.9999988,11.5180331 15.9999988,9.5083197 C16.0010932,7.49276749 15.2766067,5.59866222 13.960055,4.17516387" id="Fill-2" sketch:type="MSShapeGroup"></path>
                <path d="M15.5548192,1 C15.4093849,1 15.2714916,1.06612622 15.1669943,1.18515342 C14.9450723,1.43402848 14.9450723,1.83799958 15.165917,2.08567234 C16.9251337,4.07667277 17.8936186,6.710901 17.8936186,9.50503446 C17.8936186,12.3063817 16.9251337,14.9406099 15.1680716,16.921992 C15.0592652,17.0446261 15.0000142,17.2021267 15.0000142,17.370448 C14.9989369,17.5399716 15.0592652,17.7010791 15.1669943,17.8213086 C15.3749116,18.0617676 15.7508862,18.0545538 15.9426441,17.8297247 C17.9183963,15.5946584 19.0021514,12.6406197 18.9999968,9.50503446 C18.9913785,6.3550217 17.9065461,3.39978072 15.9447987,1.18515342 C15.8403014,1.06612622 15.7013308,1 15.5548192,1" id="Fill-3" sketch:type="MSShapeGroup"></path>
            </g>
        </g>
    </g>
</svg>