<svg xmlns="http://www.w3.org/2000/svg" viewBox="0 0 1099 112"><path fill="#004563" d="M102 102.3c-1.2-4.7-5.8-17.4-6.6-19.9l-13-35.9h-.3L69.9 82.4C68 88 63.7 100 63.4 102.3H53.1c-.7-3.9-2.9-11-6.3-20.8L27.6 28.2c-2.9-7.9-4.3-9-9.4-10.2v-6.5h39.5V18c-4 1-5.9 3.3-5.9 7.5 0 2.1.6 4.1 2.6 10l12.4 35.9h.2l11.5-34.8-2.4-7.6c-2.3-7.2-4.6-10.1-9.2-10.9v-6.5h40v6.5c-5 1.2-7.1 3.1-7.1 7.1 0 2.8.6 5.6 2.6 11.5l12 36.3h.3l11.4-36.3c1.2-3.5 1.6-6.8 1.6-9.3 0-5.5-2.6-8.4-8.5-9.3v-6.5h26.2v6.5c-4.8 2-7.5 5-9.5 11.1l-17.6 52.5c-1.3 4.1-4.6 14.9-6.2 20.7H102z"/><path fill="#004563" d="M181.8 40.8v13.1h-6.5c-4.3-7.1-7.2-8.6-13.6-8.6h-3.8v22.5c7.2 0 10.9-2 11.9-7.3h6.4v19.9h-6.4c-1-5.8-4.6-8.1-11.9-8.1v17.1c0 5.1.9 8.4 6.1 8.4 5.3 0 9.5-3.9 12.3-11.1h6.6l-1.7 15.6h-45.4v-4.5c4.4-.4 5.9-2.3 5.9-6.7V51.3c0-4-2-5.9-5.9-6v-4.5h46zM231.9 40.8v13.1h-6.5c-4.3-7.1-7.2-8.6-13.6-8.6H208v22.5c7.2 0 10.9-2 11.9-7.3h6.4v19.9h-6.4c-1-5.8-4.6-8.1-11.9-8.1v17.1c0 5.1.9 8.4 6.1 8.4 5.3 0 9.5-3.9 12.3-11.1h6.6l-1.7 15.6h-45.4v-4.5c4.4-.4 5.9-2.3 5.9-6.7V51.3c0-4-2-5.9-5.9-6v-4.5h46zM235.6 102.3v-4.5c4-.3 5.6-2.1 5.6-6.8V51.9c0-4.6-1.9-6.2-5.6-6.6v-4.5h27.8v4.5c-3.9.3-6 2-6 6.3V71h.2l9.8-11.3c4.3-4.8 5.9-8 5.9-9.8 0-2.8-1-4-4.9-4.6v-4.5h23v4.5c-4.1 0-8.2 2.7-13.9 9.5L269 65l16.8 25.2c5.4 7.9 5.6 7.7 8.4 7.7v4.5h-19.3l-17.3-27.5h-.2V92c0 4.1 2.3 5.9 6 5.9v4.5h-27.8zM342.5 40.8v13.1H336c-4.3-7.1-7.2-8.6-13.6-8.6h-3.8v22.5c7.2 0 10.9-2 11.9-7.3h6.4v19.9h-6.4c-1-5.8-4.6-8.1-11.9-8.1v17.1c0 5.1.9 8.4 6.1 8.4 5.3 0 9.5-3.9 12.3-11.1h6.6l-1.7 15.6h-45.4v-4.5c4.4-.4 5.9-2.3 5.9-6.7V51.3c0-4-2-5.9-5.9-6v-4.5h46zM345.5 102.3v-4.5c4.9-1.9 6.7-4.1 6.8-13.5V51.5c-1.8-3.6-3.6-5.4-6.2-6.1v-4.5h17.2l24.8 37h.2V55.4c0-6.6-1.6-9.4-6.7-10.1v-4.5h17.9v4.5c-4.3.5-6.1 3.2-6.1 8.6v49H388l-30.5-45.6h-.2v30.6c0 5.6 2.1 9.1 7.6 10v4.5h-19.4zM424.6 90.9c0 5.6.7 6.9 3.8 6.9 7.2 0 8.9-11 8.9-26.8 0-21.4-5.6-25.8-12.7-25.7v45.6zm.7-50.1c18.3 0 29.5 11.5 29.5 30.8 0 14.5-6.1 30.8-27.6 30.8h-24.3v-4.5c4.3-.5 5.5-2.4 5.5-6.8V50.9c0-3.2-1.9-5.2-5.5-5.6v-4.5h22.4zM508.8 33.2h-.3l-8.8 31.2H517l-8.2-31.2zm45.4 69.6h-36.4v-6.5c4-.9 5.9-3 5.9-6.4 0-1.6-.4-3.3-1.6-7.7L519.3 72h-21.9l-2.6 8.1c-.9 2.6-1.3 6.2-1.3 7.9 0 3.8 2.4 6.8 6.9 8.2v6.5h-23.9v-6.5c5-2.4 6.8-5.2 11.1-19.2l17.6-55.9-2.2-7.6h23l18.9 66.7c3.6 12.6 4.9 14.5 9.2 16.1v6.5zM164.7 15.5H163c-.6-1.8-1.7-2.7-3.1-2.7v14c0 1.2.3 1.9 1.9 2v1.4h-8.7v-1.4c1.3-.1 1.9-.6 1.9-1.8V12.8c-1.4 0-2.5.9-3.1 2.7h-1.7v-4.1h14.4v4.1zM172.9 26.8c0 1.2.4 1.8 1.7 2v1.4h-8.3v-1.4c1.2-.1 1.7-.7 1.7-2.1V14.8c0-1.3-.5-1.9-1.7-1.9v-1.4h8.3v1.4c-1.3.1-1.7.7-1.7 2v4.9h4.5v-5.1c0-1.1-.8-1.8-1.7-1.8v-1.4h8.3v1.4c-1.2.1-1.7.8-1.7 1.8v12.1c0 1.2.3 1.9 1.7 2v1.4h-8.3v-1.4c1.3-.1 1.7-.7 1.7-2.2v-5.2h-4.5v5.4zM199.6 11.4v4h-2c-1.3-2.2-2.2-2.6-4.1-2.6h-1.1v6.8c2.2 0 3.3-.6 3.6-2.2h2v6h-2c-.3-1.8-1.4-2.5-3.6-2.5v5.2c0 1.6.3 2.5 1.8 2.5 1.6 0 2.9-1.2 3.7-3.4h2l-.5 4.7h-13.8v-1.4c1.3-.1 1.8-.7 1.8-2V14.6c0-1.2-.6-1.8-1.8-1.8v-1.4h14zM577.9 40.8v4.5c-4.3.3-6 2.1-6 6.5v32.3c0 8 2.6 13.6 9.4 13.6 5.3 0 11.3-4.2 11.3-12.9V58.6c0-9.7-1.4-12.3-6.6-13.3v-4.5h17.5v4.5c-5.8 1-5.9 4.1-5.9 9.2v28.8c0 13.6-9.2 20.1-21.4 20.1-9.4 0-20.5-3.2-20.5-19.8V51.8c0-4.2-1.5-6.5-6-6.5v-4.5h28.2zM612.6 84c2.1 9 6.6 14.9 11.7 14.9 3.7 0 6.4-3 6.4-6.9 0-3.3-2.1-6.7-7.3-11.6l-8.8-8.5c-6.4-6-9.3-11.2-9.3-16.6 0-9 7.7-15.5 18.4-15.5 6.3 0 13.4 2.4 18.4 6.4v13.3h-6.8l-.1-.4c-1.7-9.1-6.2-14.8-11.8-14.8-3.4 0-5.7 2.2-5.7 5.4 0 2.4 1.9 5.5 5.4 8.7l7.8 7.3c10.7 10.1 13.3 14.2 13.3 20.8 0 9.9-8.4 16.9-20.5 16.9-5.7 0-11.6-1.4-17.5-3.9l-.8-15.5h7.2zM693.4 54.3h-5.5c-1.9-5.9-5.5-8.9-10.1-8.9v46c0 4 1.1 6.3 6.1 6.5v4.5h-28.6v-4.5c4.3-.2 6.1-2 6.1-6V45.3c-4.6 0-8.1 3.1-10.1 8.9h-5.5V40.8h47.4v13.5zM719.6 45.3v24.6c9.1 0 13.8-2.5 13.8-12.4 0-10.2-4.8-12.4-13.8-12.2m-22.5 57v-4.5c4.6-.3 6.2-1.7 6.2-6.8V51.4c0-3.8-1.6-6-6.2-6v-4.5h27c16.6 0 26.8 5.6 26.8 16.3 0 6.6-4.9 12.2-12.4 14.7 5.6 7.7 9.8 20.7 13.8 24.3.6.5 2.5 1.5 3.3 1.7v4.5H738c-1.3-1.6-2.2-3-2.9-4.4l-11.3-23.5h-4.2v16.7c0 4.1 1.2 6.6 6.2 6.7v4.5h-28.7zM780.4 54.4h-.2l-6.1 21.5H786l-5.6-21.5zm31.2 47.9h-25.1v-4.5c2.8-.6 4.1-2.1 4.1-4.4 0-1.1-.3-2.3-1.1-5.3l-1.9-6.9h-15.1l-1.8 5.6c-.6 1.8-.9 4.2-.9 5.4 0 2.6 1.7 4.7 4.8 5.7v4.5h-16.5v-4.5c3.5-1.6 4.7-3.6 7.6-13.3L777.9 46l-1.5-5.2h15.9l13 45.9c2.5 8.7 3.4 10 6.3 11.1v4.5zM860.5 102.3H815v-4.5c4.1-.3 5.8-2.3 5.8-6.3v-40c0-4.1-2.2-5.9-5.8-6.1v-4.5h28v4.5c-4.2.3-6 2.2-6 6.2v36.8c0 6.2.8 9.5 6.1 9.5 5.4 0 9.1-3.9 12.3-11.1h6.8l-1.7 15.5zM864.4 102.3v-4.5c4.1-.3 6-2 6-6V51.1c0-3.5-2.2-5.7-6-5.8v-4.5h28.8v4.5c-4 0-6.4 1.9-6.4 5.9v40.2c0 4.7 2.2 6.2 6.4 6.4v4.5h-28.8zM918.2 54.4h-.2l-6 21.5h11.9l-5.7-21.5zm31.3 47.9h-25.1v-4.5c2.8-.6 4.1-2.1 4.1-4.4 0-1.1-.3-2.3-1.1-5.3l-1.9-6.9h-15.1l-1.8 5.6c-.6 1.8-.9 4.2-.9 5.4 0 2.6 1.7 4.7 4.8 5.7v4.5H896v-4.5c3.5-1.6 4.7-3.6 7.6-13.3L915.8 46l-1.5-5.2h15.9l13 45.9c2.5 8.7 3.4 10 6.3 11.1v4.5zM952.6 102.3v-4.5c4.9-1.9 6.7-4.2 6.8-13.5V51.5c-1.8-3.6-3.6-5.4-6.2-6.1v-4.5h17.2l24.8 37h.2V55.4c0-6.6-1.6-9.4-6.7-10.1v-4.5h17.9v4.5c-4.3.5-6.2 3.2-6.2 8.6v49h-5.2l-30.6-45.6h-.2v30.6c0 5.6 2.1 9.1 7.6 10v4.5h-19.4z"/><path fill="#F15B46" d="M1058.4 46.8l.8.4 1.8 1.2.8.4 1 .7.9.3.8.9 1.3.5.7-.6.2-.7.4-.8v-1.6l.4-.7-.1-.7-.1-1 .4-1.2.1-1.1-.1-.7.6-.7-.1-1 .3-.6.2-.4.6.4.1 1.5.5.2.1.7.3.8.1 1.4.8 1.3.5-.4h.3l.8.8.4.9v1.2l.4 1.4.5.4.1 2.2.3 1 .9.8 1 .3.5.7 1 .5.3 1.1.5.6.4 1.4.4.6.1-.4.7.4.8 2 1.5 1.7.6 1.3.6-.6v1.1l-.1.8.1.8-.1 1.5h.2l.1 3-.3.5-.2.8-.5.5.1 1.3-.6 1.7-.6.8-.5.4-.9 1.2-.3.9-.4.5-.4 1.2-.7 1.5-.3 1.3v.3l-.3.9-.9.6-.9-.1-.7.2-1.2.9-1 .5-1.1-.8h-.4l-.2-.7-.3.5-1.1.8-.8-.5-.9-.4-1.4-.1-1.7-1.6-.2-.8-.2-1-.7-1.3-.6.3h-.6l.4-.8-.1-1-.4-.5-.2 1.3-1.2.1.4-.7.7-1.9.1-1.3-.6.3-.2.4.1.7-.9.4-.5.6-.3.6-.1.6-1-.5-.8-1.6-.2-.5-.5-.2-.8-1.3-.8-.3-1 .1-.7-.5-.6-.3-.6.1-1.3-.2-1.3.3-.6.6-2.2 1-1.3-.3-1.7 1.3-.3.3-.2 1-.8.5h-.6l-.9.6-.6-.6-1 .2-1 .5-.5.6-1.5 1-1.1.4-1.3.1-1.1-.5-.7-.5-.5-.9.6-.4-.2-1.3-.1-1-1.3-1.9-.5-1.1v-1.3l-1-.6-.7-.8-.7-1.4-.6-.7-.7-1.3.5.1-.1-.6.8.6.1-1.3-.7-.4-.7-1.1-.1-.8.1-1-.3-1.1.2-.5v-.9l.8.5.4-.7.5-1 .7-.1.4-.9 1-.7.8.3.9-1.1.9.4.6-1 .8-.2.9-.5.7-.1.7-.6.4-1.2 1-1.2-.3-.9-.2-.8.5-.7.6-.6.3.7.7 1.3.3-.8-.5-.9.2-.6.5.2 1-.2v-.7l-.4-.8.5-.4.5-1.4.7-.4.5.4.8-.4.3-.7.7-.2.4.3.5.7.6.2v1.4l.2-.1.2-.9.5-.3.8.4.6.1v-.7l-.6-.6.5-.6.1-.4 1-.4-.3-.8.3-.6.4-.4.7-.5 1 .2.9-.1.4-.5-.3-.7-.8-.6 1.4.1.7.6.6.1 1.2.4.9.2.6.3.6-1 .6.5.4-.1.6.7-.8 1.3-.7.2.1.7zM1071.2 89.4h.8l.7.4.9.5.7-.4.9-.3.5.2.1 1.7-.4.8-.1.9h-.5l-.6.3-.2.7-.8.1-.6-.7-.6-1-.1-1.3-.7-1z"/></svg>