<svg width="270" height="41" viewBox="0 0 270 41" xmlns="http://www.w3.org/2000/svg"><title>heraldsun</title><g fill="#231F20" fill-rule="evenodd"><path d="M26.115 18.374V7.327c0-2.785-1.262-3.68-4.628-3.68V1.42h18.435v2.229c-3.727 0-4.987.894-4.987 3.68v26.556c0 2.79 1.26 3.68 4.987 3.68v2.232H21.487v-2.231c3.366 0 4.628-.89 4.628-3.681V20.938h-11.77v12.946c0 2.79 1.265 3.68 4.62 3.68v2.232H.536v-2.231c3.733 0 4.986-.89 4.986-3.681V7.327c0-2.785-1.253-3.68-4.986-3.68V1.42h18.43v2.229c-3.355 0-4.62.894-4.62 3.68v11.046h11.77z"/><path d="M47.826 24.234c.419-6.415 2.101-9.318 4.516-9.318 2.518 0 3.782 2.346 3.782 9.318h-8.298zm16.7 2.562c0-8.869-4.941-13.888-11.346-13.888-8.924 0-13.76 7.472-13.76 13.78 0 6.301 4.836 13.776 13.76 13.776 6.096 0 9.085-2.9 11.187-7.031l-1.679-1.11c-1.79 2.79-4.674 5.574-8.039 5.574-5.617 0-6.823-5.742-6.823-11.102h16.7v.001zM66.468 39.796v-2.231c3.515 0 4.046-1.115 4.046-3.681V19.489c0-2.563-.53-3.68-4.046-3.68v-2.007l11.08-.224v5.97h.106c1.104-2.68 3.097-6.64 7.09-6.64 2.839 0 4.88 2.12 4.88 4.799 0 2.62-1.571 4.35-3.78 4.35-2.468 0-3.57-1.784-3.57-3.96 0-.783.104-1.337.212-1.952-3.1 2.283-4.626 8.422-4.626 16.29 0 4.017.527 5.131 4.943 5.131v2.232H66.468v-.002zM104.505 32.097c0 3.295-1.316 5.358-3.576 5.358-2.309 0-3.207-2.006-3.207-4.185 0-3.85 3.575-6.642 6.783-7.423v6.25zm7.665-11.434c0-5.58-3.523-7.755-9.718-7.755-7.403 0-10.973 3.403-10.973 6.75 0 2.677 1.628 4.294 3.94 4.294 2.202 0 3.724-1.839 3.724-3.85 0-2.059-1.254-3.4-2.886-3.624v-.115c1.052-.612 2.31-.886 3.515-.886 3.1 0 4.733 1.284 4.733 4.625v3.242c-4.733 1.393-14.867 3.512-14.867 10.598 0 4.912 4.091 6.525 8.197 6.525 3.094 0 5.613-1.06 7.563-3.624 1.208 2.455 2.882 3.624 5.508 3.624 4.365 0 6.623-2.9 6.623-6.64v-1.056h-1.783c-.268 2.12-.747 4.014-1.947 4.014-1.266 0-1.63-1.056-1.63-3.348V20.663z"/><path d="M133.475 39.796h-16.018v-2.231c3.778 0 4.306-1.115 4.306-3.681V7.775c0-2.567-.528-3.681-4.096-3.681V1.977l11.769-.226v32.133c0 2.566.518 3.68 4.04 3.68v2.232zM142.672 25.963c0-5.359.94-10.487 4.41-10.487 2.834 0 4.412 3.564 4.412 11.768 0 5.356-1.157 10.653-4.723 10.653-3.16 0-4.1-5.298-4.1-11.934zm16.484-24.212l-11.756.226v2.117c3.57 0 4.093 1.114 4.093 3.681v7.7c-1.416-1.508-3.358-2.567-5.778-2.567-5.779 0-11.449 5.58-11.449 13.669 0 8.312 5.25 13.889 11.237 13.889 3.368 0 4.52-1.339 6.252-3.12h.107v2.79l10.867-.227v-2.012c-3.042 0-3.574-1.114-3.574-3.68V1.751h.001zM177.63 25.069h2.32c1.419 6.08 4.937 12.828 11.605 12.828 3.621 0 6.723-1.782 6.723-6.466 0-8.09-20.327-5.301-20.327-18.077 0-8.034 5.623-12.61 12.243-12.61 5.72 0 7.608 2.96 9.033 2.96 1.044 0 1.462-1.287 2.044-2.285h2.202v13.27h-2.097c-1.519-6.076-4.886-11.374-10.393-11.374-3.315 0-6.095 1.95-6.095 5.632 0 8.704 20.637 4.408 20.637 18.856 0 8.312-7.087 12.662-12.92 12.662-6.46 0-8.927-2.9-10.61-2.9-1.046 0-1.838 1.508-2.257 2.23h-2.108V25.07zM218.875 33.103c0 2.677.843 4.35 2.783 4.35 3.415 0 4.623-3.682 4.623-6.691V19.489c0-2.563-.524-3.68-4.305-3.68v-2.007l11.976-.224v20.307c0 2.565.523 3.68 4.201 3.68v2.012l-11.403.22v-3.013c-2.412 2.568-4.092 3.682-7.66 3.682-5.463 0-7.889-2.677-7.889-8.369V19.489c0-2.563-.512-3.68-3.776-3.68v-2.007l11.451-.224v19.525zM239.797 39.796v-2.231c3.36 0 3.882-1.115 3.882-3.681V19.489c0-2.563-.523-3.68-3.776-3.68v-2.007l11.026-.224v4.073c2.261-2.793 4.307-4.743 8.192-4.743 4.361 0 7.299 2.678 7.299 8.145v12.832c0 2.565.529 3.68 3.579 3.68v2.232h-11.247V19.156c0-2.23-.89-3.237-2.364-3.237-2.935 0-5.036 5.133-5.036 8.817v9.148c0 2.566.519 3.68 4.2 3.68v2.232h-15.755z"/></g></svg>