<?xml version="1.0" encoding="utf-8"?>
<!-- Generator: Adobe Illustrator 15.1.0, SVG Export Plug-In  -->
<!DOCTYPE svg PUBLIC "-//W3C//DTD SVG 1.0//EN" "http://www.w3.org/TR/2001/REC-SVG-20010904/DTD/svg10.dtd" [
	<!ENTITY ns_flows "http://ns.adobe.com/Flows/1.0/">
]>
<svg version="1.0"
	 xmlns="http://www.w3.org/2000/svg" xmlns:xlink="http://www.w3.org/1999/xlink" xmlns:a="http://ns.adobe.com/AdobeSVGViewerExtensions/3.0/"
	 x="0px" y="0px" width="13px" height="13px" viewBox="0 -0.5 13 13" overflow="visible" enable-background="new 0 -0.5 13 13"
	 xml:space="preserve">
<defs>
</defs>
<path fill="#FFFFFF" d="M11.107,8.637C10.355,8.26,9.264,7.355,7.637,7.055c0.4-0.482,0.721-1.236,1.061-2.11
	C8.865,4.416,8.834,3.98,8.834,3.362c0-0.468,0.094-1.191-0.029-1.613C8.451,0.378,7.545,0,6.486,0C5.412,0,4.505,0.378,4.152,1.75
	C4.045,2.172,4.122,2.91,4.122,3.362c0,0.618-0.031,1.054,0.169,1.582c0.322,0.875,0.63,1.644,1.045,2.11
	c-1.613,0.317-2.718,1.22-3.44,1.582c-1.536,0.724-1.536,1.522-1.536,1.522v0.302c0,0.527,0.568,1.055,1.121,1.055h10.026
	c0.705,0,1.135-0.575,1.135-1.102v-0.255C12.643,10.159,12.625,9.36,11.107,8.637z"/>
<rect id="_x3C_Slice_x3E__2_" fill="none" width="13" height="12"/>
</svg>
