<svg width="270" height="44" viewBox="0 0 270 44" xmlns="http://www.w3.org/2000/svg"><title>dailytelegraph</title><path d="M47.66 6.374c-.017-1.294-.297-1.83-.97-1.83-.832 0-1.097 1.103-1.127 1.83h2.096zm1.665 2.39l-.056.076c-.736.984-1.52 1.421-2.544 1.421-1.657 0-2.905-1.312-2.905-3.053 0-.837.258-1.654.727-2.302.526-.72 1.247-1.1 2.09-1.1.699 0 1.321.277 1.795.8.544.597.832 1.454.816 2.406l-.003.1H45.585c.04 1.079.702 2.2 1.748 2.2.7 0 1.259-.54 1.53-.867l.065-.077.072.072.26.258.065.066zm-6.023.023V5.58c0-.999-.73-1.81-1.631-1.81-.75 0-1.262.39-1.775.837V.572l-.123.04-2.339.753-.07.023v.551l.084.013c.563.077.677.454.69 1.082V8.58c-.033.91-.294.91-.625.91h-.094v.591h3.174V9.49h-.096c-.3 0-.591-.054-.601-.7V5.452c.058-.033.117-.07.172-.104.255-.159.515-.323.775-.323.574 0 .7.59.7.735v2.817c-.031.91-.292.91-.622.91h-.097v.591H44v-.591h-.096c-.299 0-.591-.054-.601-.7zm-6.116-5.41l.025.1-.091.028-.402.122-.07.022-.04-.066c-.533-.95-1.425-1.965-2.355-2.054V8.43c0 .802.215 1.033.958 1.033h.096v.617h-4.09v-.617h.098c.743 0 .958-.23.958-1.033V1.545c-1.066.205-1.857 1.21-2.336 2.038l-.038.066-.069-.022-.402-.123-.087-.028.019-.096.533-2.47.02-.08h6.668l.017.078.588 2.47zM237.693 15.18c3.42 0 3.79 5.33 3.79 7.621 0 .935-.117 9.129-4.141 9.129-1.523 0-2.497-.936-3.59-2.168V17.6c.826-1.125 2.165-2.42 3.941-2.42zm-12.884-.943v1.884l.242.032c2.067.284 2.492 1.664 2.53 3.953v17.32c-.112 3.322-1.08 3.322-2.303 3.322h-.272v1.993h11.242v-1.993h-.272c-1.107 0-2.19-.198-2.224-2.574V32.83c1.357 1.047 3.117 2.112 5.23 2.112 3.022 0 8.667-3.482 8.667-11.876 0-5.558-2.583-11.166-8.355-11.166-2.032 0-4.007.933-5.542 2.516v-3.06l-8.943 2.879zm-10.607 17.428c1.593 0 2.999-1.63 3.472-2.247v-6.704c-2.779.412-5.931 1.754-5.931 5.715 0 2.027.918 3.236 2.459 3.236zm1.834-19.764c.946 0 4.176.124 5.912 1.71 1.897 1.768 1.897 3.97 1.897 5.912v9.425l.007.264c.032 1.193.098 1.922 1.046 1.922.265 0 .594-.126.88-.246l.251-.108.427 1.238-.084.137c-1.024 1.643-2.898 2.789-4.558 2.789-1.615 0-3.02-.939-3.927-2.546-2.039 1.744-4.069 2.546-6.538 2.546-3.765 0-6.014-2.203-6.014-5.893 0-6.536 8.467-8.198 12.34-8.905v-.933-.677c0-1.368-.053-3.077-.815-3.943-.36-.41-.848-.608-1.49-.608-1.662 0-2.107 1.371-2.62 2.961l-.05.154c-.673 2.163-1.792 3.353-3.148 3.353-1.313 0-2.732-1.102-2.732-2.88 0-1.961 1.926-5.672 9.216-5.672zm-44.061 26.267v-.053c.013-.915.455-1.749 1.297-2.482l6.219 1.167c3.402.497 3.606.914 3.606 1.761 0 .056 0 .114-.002.174a1.672 1.672 0 0 1-.458 1.152c-.84.92-2.855 1.397-5.675 1.34-2.279-.042-4.987-.614-4.987-3.06zm2.197-18.444c.021-1.42.41-3.336 1.44-4.463.569-.625 1.268-.934 2.078-.918.713.016 1.328.316 1.82.896 1.048 1.232 1.394 3.468 1.368 5.15-.031 1.993-.799 5.348-3.479 5.293-3.157-.062-3.245-4.974-3.227-5.958zm6.999-7.038c-1.288-.435-2.474-.672-3.601-.695-2.302-.045-5.518.733-7.636 3.053-1.256 1.377-1.909 3.059-1.936 5.002-.002.043-.002.086-.002.129 0 2.69 1.302 4.813 3.844 6.333-.118.062-.292.159-.292.159-1.555.823-3.489 1.849-3.525 4.193v.085c0 2.015 1.114 2.901 2.366 3.747-1.42.544-3.385 1.535-3.42 3.857v.064c0 2.963 3.228 4.658 9.101 4.776 10.703.213 12.372-4.313 12.41-7.026v-.107c0-2.438-1.32-4.201-3.823-5.097-1.307-.452-4.288-.84-6.682-1.154-1.608-.213-3.127-.41-3.568-.559-.668-.268-.763-.593-.763-.85v-.019c.004-.4.551-.723.92-.94.9.241 1.728.374 2.526.392 2.363.045 5.626-.714 7.696-2.98 1.214-1.331 1.845-2.98 1.875-4.899v-.137c0-3.168-1.707-5.01-3.307-6.271.123-.127.241-.213.4-.21.182.004.477.153.786.31.487.247 1.034.525 1.623.536 1.459.029 2.714-1.285 2.739-2.87a3.076 3.076 0 0 0-.721-2.035c-.501-.584-1.188-.928-1.891-.942-2.106-.043-4.055 2.022-5.12 4.155zm-27.352 8.434h7.673c-.044-4.734-1.076-6.693-3.545-6.693-3.069 0-4.025 4.066-4.128 6.693zm3.934-9.219c2.538 0 4.866 1.075 6.545 3.024 1.78 2.063 2.75 4.935 2.75 8.118 0 .1 0 .198-.003.297l-.005.303h-13.13c.123 3.917 2.513 8.021 6.343 8.021 2.534 0 4.558-1.967 5.54-3.138l.18-.219 1.336 1.33-.175.232c-2.66 3.556-5.371 5.073-9.07 5.073-5.897 0-10.346-4.686-10.346-10.9 0-2.989.923-5.907 2.6-8.218 1.865-2.565 4.434-3.923 7.435-3.923zm-28.644 2.526c2.468 0 3.5 1.959 3.544 6.693h-7.671c.1-2.627 1.059-6.693 4.127-6.693zm-7.63 1.398c-1.678 2.312-2.598 5.23-2.598 8.219 0 6.214 4.446 10.9 10.345 10.9 3.698 0 6.41-1.517 9.07-5.074l.175-.23-1.337-1.33-.181.217c-.98 1.171-3.004 3.139-5.54 3.139-1.798 0-3.447-.945-4.643-2.657-1.037-1.49-1.638-3.431-1.698-5.365H138.2l.007-.303c.002-.098.002-.196.002-.295 0-3.184-.972-6.058-2.748-8.12-1.683-1.95-4.01-3.024-6.547-3.024-3 0-5.57 1.357-7.437 3.923zM146.301.457v29.391c0 1.072.229 1.782.698 2.169.43.352 1.013.4 1.528.4h.272v1.993h-11.282v-1.994h.274c1.202 0 2.341 0 2.341-3.324V9.204c-.038-2.288-.463-3.67-2.53-3.953l-.239-.033v-1.88l8.938-2.881zm-46.35.898l-2.028 9.395 1.894.58.109-.19c1.735-3.006 4.61-6.665 8.516-7.365v24.789c0 2.886-.82 3.766-3.511 3.766h-.274v2.08h14.523v-2.08h-.273c-1.392 0-2.244-.246-2.76-.792-.521-.554-.753-1.47-.753-2.975V3.746c3.398.27 6.653 3.946 8.594 7.391l.108.192 1.901-.584-2.235-9.391h-23.81zm103.525 10.103c1.753 0 2.928 1.948 2.928 3.766 0 1.785-1.226 3.236-2.733 3.236-.712 0-1.432-.346-2.066-.651-.491-.236-.954-.458-1.291-.458-.677 0-2.026 1.748-2.578 2.71v9.77c.105 2.2.89 2.584 2.499 2.584h.273v1.994h-11.675v-1.993h.274c1.616 0 2.459-.148 2.459-3.324v-8.86c0-2.222-.424-3.658-2.53-3.946l-.24-.034V14.37l8.94-2.878v4.622c1.401-1.971 3.497-4.655 5.74-4.655zm42.801-8.12v1.88l.24.033c2.068.283 2.494 1.665 2.533 3.953V29.09c-.111 3.324-1.08 3.324-2.303 3.324h-.275v1.994h11.244v-1.993h-.273c-1.106 0-2.189-.198-2.225-2.573V17.848l.651-.394c.916-.574 1.862-1.166 2.824-1.166 2.12 0 2.578 2.167 2.578 2.703v10.101c-.114 3.325-1.08 3.325-2.304 3.325h-.274v1.994h11.248v-1.995h-.275c-1.104 0-2.19-.198-2.227-2.573V18.325c0-3.542-2.59-6.425-5.778-6.425-2.729 0-4.574 1.454-6.442 3.091V.457l-8.942 2.88zM38.631 31.663c1.596 0 3.002-1.63 3.477-2.247v-6.704c-2.779.412-5.937 1.754-5.937 5.715 0 2.027.92 3.236 2.46 3.236zM40.466 11.9c.949 0 4.179.124 5.913 1.71 1.898 1.769 1.898 3.97 1.898 5.912v9.425l.006.265c.03 1.191.099 1.92 1.048 1.92.265 0 .579-.119.878-.245l.255-.108.424 1.238-.084.137c-1.023 1.643-2.897 2.789-4.56 2.789-1.615 0-3.02-.939-3.928-2.546-2.035 1.744-4.066 2.546-6.533 2.546-3.767 0-6.016-2.203-6.016-5.893 0-6.536 8.469-8.198 12.341-8.905v-.933l.001-.678c0-1.368-.057-3.076-.816-3.942-.36-.41-.847-.608-1.49-.608-1.663 0-2.107 1.371-2.622 2.96 0 0-.052.16-.048.156-.675 2.163-1.791 3.352-3.148 3.352-1.316 0-2.733-1.101-2.733-2.88 0-1.961 1.925-5.672 9.214-5.672zM11.544 28.075V7.514c0-2.773 0-3.81 2.732-3.81 4.287 0 8.667 1.589 8.667 13.38 0 13.277-4.4 14.98-8.238 14.98-3.16 0-3.16-.687-3.16-3.99zM.807 1.355v2.082h.272c2.691 0 3.515.88 3.515 3.768v21.358c0 2.886-.823 3.766-3.515 3.766H.807v2.08h13.859c2.138 0 4.633-.14 6.934-1.174 5.274-2.323 8.685-8.212 8.685-15 0-7.421-3.238-13.131-8.88-15.663-1.906-.83-4.046-1.218-6.74-1.218H.808zm94.868 11.077v1.927l-.207.057c-2.345.666-3.003 2.348-3.909 4.674l-.201.515-5.858 14.8c-1.49 3.713-3.34 8.336-8.058 8.336-1.76 0-3.631-1.213-3.631-3.457 0-1.758 1.314-3.189 2.928-3.189 1.166 0 1.885.813 2.46 1.467.373.426.698.792 1.015.792 1.03 0 2.39-2.772 2.904-4.288l-6.9-16.628-.03-.074c-.636-1.574-1.14-2.818-2.783-2.939l-.258-.018v-1.974h10.816V14.4l-.25.025c-.651.068-1.43.36-1.43 1.375 0 .762.328 1.594.617 2.327l.06.157s2.756 6.646 3.187 7.681c.41-1.015 2.692-6.641 2.692-6.641.331-.797.743-1.786.743-2.639 0-1.172-.39-1.92-2.383-2.261l-.23-.041v-1.95h8.706v-.001zm-44.62 1.495v1.883l.24.033c2.108.289 2.532 1.723 2.532 3.946v9.303c0 3.325-1.068 3.325-2.303 3.325h-.274v1.994h11.244v-1.995h-.272c-1.106 0-2.191-.198-2.227-2.573V11.046l-8.94 2.88zM72.22.457v29.391c0 2.372 1.15 2.568 2.227 2.568h.273v1.994H63.436v-1.994h.274c1.204 0 2.342 0 2.342-3.324V9.204c-.04-2.288-.464-3.67-2.532-3.953l-.24-.033v-1.88L72.22.456zM52.802 5.73c0 2.4 1.718 4.354 3.836 4.354 2.151 0 3.837-1.912 3.837-4.354 0-2.401-1.722-4.354-3.837-4.354-2.117-.001-3.836 1.953-3.836 4.354z" fill="#171C21" fill-rule="evenodd"/></svg>