<?xml version="1.0" encoding="utf-8"?>
<!-- Generator: Adobe Illustrator 21.1.0, SVG Export Plug-In . SVG Version: 6.00 Build 0)  -->
<svg version="1.1" id="Layer_1" xmlns="http://www.w3.org/2000/svg" xmlns:xlink="http://www.w3.org/1999/xlink" x="0px" y="0px"
	 viewBox="0 0 133 17" width="121" height="17" style="enable-background:new 0 0 133 17;" xml:space="preserve">
<style type="text/css">
	.st0{fill:#FFFFFF;}
	.st1{fill:#0DBD97;}
</style>
<g id="Layer_1_1_">
	<g>
		<g>
			<g>
				<path class="st0" d="M17.2,15.9H22L24.6,1h-4.8l-0.9,5.3h-4.2L15.6,1h-4.8L8.1,15.9H13l1-5.6h4.2L17.2,15.9z"/>
			</g>
			<g>
				<path class="st0" d="M27.4,1l-1.5,8.3c-0.1,0.7-0.2,1.3-0.2,1.9c0,4.4,3.9,5.1,6.2,5.1c4.8,0,6.9-1.6,7.7-5.9L41.2,1h-4.8
					L35,8.8c-0.4,2.4-0.8,3.7-2.6,3.7c-1.2,0-1.8-0.6-1.8-1.9c0-0.5,0.1-1.1,0.2-1.9L32.2,1L27.4,1L27.4,1z"/>
			</g>
			<g>
				<path class="st0" d="M66.9,15.9h4.8l0.7-3.8h2.3c4.2,0,6.6-2.3,6.6-6.5c0-2.9-2-4.6-5.6-4.6h-6.2L66.9,15.9z M74.4,8.4H73
					l0.7-3.5H75c1.1,0,1.6,0.5,1.6,1.5C76.6,7.6,75.8,8.4,74.4,8.4z"/>
			</g>
			<g>
				<path class="st0" d="M90.7,0.7c-5.3,0-8.4,3.4-8.4,9.2c0,4,2.5,6.4,6.7,6.4c5.3,0,8.4-3.4,8.4-9.2C97.4,3.1,94.9,0.7,90.7,0.7z
					 M89.3,12.3c-1.2,0-2-0.9-2-2.4c0-0.6,0-1.1,0.2-1.6c0.4-1.9,1-3.8,3-3.8c1.2,0,2,0.9,2,2.4c0,0.6,0,1.1-0.2,1.6
					C91.9,10.5,91.2,12.3,89.3,12.3z"/>
			</g>
			<g>
				<path class="st0" d="M114.3,15.9h4.8L121.1,5h3.7l0.7-4H113l-0.7,4h3.9L114.3,15.9z"/>
			</g>
			<path class="st0" d="M106.3,6.5c-1.5-0.5-2.2-0.7-2.2-1.4c0-0.5,0.3-1,1.2-1c0.7,0,1.2,0.4,1.5,0.9l4.3-1.1
				c-0.5-2.1-2.3-3.2-5.4-3.2c-5.9,0-6.3,3.9-6.3,5.1c0,2.5,1.3,3.9,4.1,4.7c0.8,0.2,1.6,0.4,1.6,1.2c0,0.7-0.5,1-1.3,1
				c-0.8,0-1.6-0.5-1.9-1.2l-4.2,1.1c0.5,2.2,2.6,3.5,5.8,3.5c2.5,0,6.7-0.7,6.7-5.2C110.1,8.8,108.9,7.3,106.3,6.5z"/>
			<polygon class="st0" points="44,1 41.4,15.9 46.2,15.9 47,11.5 51.1,11.5 51.7,7.7 47.7,7.7 48.1,5 53.8,5 54.5,1 			"/>
			<polygon class="st0" points="56.7,1 54.1,15.9 59,15.9 59.7,11.5 63.8,11.5 64.5,7.7 60.4,7.7 60.9,5 66.5,5 67.3,1 			"/>
		</g>
		<polygon class="st1" points="5.4,15.9 0,15.9 0,1 8.1,1 		"/>
		<polygon class="st1" points="127.5,1 133,1 133,15.9 124.9,15.9 		"/>
	</g>
</g>
</svg>
